#!OML:ASF H:\MichaelJackson\Top Level 1\Subject 1\Session 1\male.ASF
:FULLY-SPECIFIED
:DEGREES
1111
root -10.9715 16.9078 12.3876 -164.475 -233.87 -171.956
lowerback 0.151319 -2.31416 -8.6349
upperback -0.648132 -3.11465 -0.933747
thorax -0.34988 -1.51275 3.86711
lowerneck -2.27024 -11.6753 -8.74889
upperneck 8.40762 -16.0847 9.64756
head 4.37652 -7.84622 3.41935
rclavicle 1.31695e-014 1.19271e-014
rhumerus -52.5632 -0.408888 -71.7162
rradius 36.1372
rwrist 14.4679
rhand -23.6721 -17.1249
rfingers 7.12502
rthumb 2.79405 -47.0864
lclavicle 1.31695e-014 1.19271e-014
lhumerus 3.04047 15.2876 12.4129
lradius 64.1088
lwrist 47.4755
lhand -28.4737 4.02811
lfingers 7.12502
lthumb -1.84339 33.9999
rfemur -46.2291 -5.58751 29.6881
rtibia 55.1219
rfoot 2.21439 -10.6041
rtoes 35.403
lfemur -19.1078 10.2311 -27.2122
ltibia 36.2172
lfoot -21.0568 -31.7057
ltoes 35.4023
1112
root -10.9764 16.9095 12.3958 -164.489 -233.84 -172.109
lowerback 0.249607 -2.24141 -8.65564
upperback -0.565039 -3.02378 -0.917127
thorax -0.328714 -1.47077 3.89904
lowerneck -2.40666 -11.6268 -8.72386
upperneck 8.2498 -16.0056 9.70209
head 4.34607 -7.80342 3.43435
rclavicle -1.20116e-013 3.57812e-015
rhumerus -52.1388 0.119505 -72.4959
rradius 36.4009
rwrist 14.2587
rhand -23.994 -17.201
rfingers 7.12502
rthumb 2.48315 -47.1663
lclavicle -1.20116e-013 3.57812e-015
lhumerus 2.20456 13.7378 12.5519
lradius 64.4833
lwrist 46.3775
lhand -27.4415 4.11692
lfingers 7.12502
lthumb -0.84653 34.095
rfemur -46.3717 -5.69426 29.821
rtibia 55.1235
rfoot 2.54734 -10.1196
rtoes 34.7323
lfemur -19.1691 10.2777 -27.1493
ltibia 36.1232
lfoot -21.3426 -31.4514
ltoes 34.9668
1113
root -10.9833 16.9174 12.4048 -164.503 -233.826 -172.301
lowerback 0.346911 -2.19819 -8.57216
upperback -0.506917 -2.97287 -0.938387
thorax -0.334895 -1.44722 3.83397
lowerneck -2.4617 -11.5528 -8.79218
upperneck 8.06337 -15.9036 9.88583
head 4.30947 -7.74996 3.50836
rclavicle -4.13472e-014 3.97569e-014
rhumerus -51.72 0.590978 -73.3605
rradius 36.6238
rwrist 14.3682
rhand -24.5555 -17.3685
rfingers 7.12502
rthumb 1.94091 -47.3394
lclavicle -4.13472e-014 3.97569e-014
lhumerus 1.23183 12.0167 12.6187
lradius 65.0604
lwrist 45.7644
lhand -26.9082 4.45214
lfingers 7.12502
lthumb -0.331378 34.4316
rfemur -46.6264 -5.64935 29.8633
rtibia 55.2535
rfoot 2.94803 -9.67727
rtoes 34.6233
lfemur -19.2539 10.3126 -27.0582
ltibia 36.0069
lfoot -21.4999 -31.2695
ltoes 34.6475
1114
root -10.9901 16.9174 12.4107 -164.39 -233.794 -172.419
lowerback 0.383811 -2.11422 -8.52739
upperback -0.445412 -2.86101 -0.986211
thorax -0.310761 -1.39419 3.7606
lowerneck -2.50655 -11.5284 -8.74439
upperneck 7.79012 -15.8714 10.1003
head 4.24474 -7.72829 3.57175
rclavicle -1.66482e-014 -7.95139e-015
rhumerus -51.203 0.825989 -74.1118
rradius 36.7783
rwrist 14.446
rhand -25.0395 -17.3663
rfingers 7.12502
rthumb 1.4734 -47.341
lclavicle -1.66482e-014 -7.95139e-015
lhumerus 0.385863 10.3439 12.9258
lradius 65.6394
lwrist 45.0198
lhand -25.9548 4.51972
lfingers 7.12502
lthumb 0.589388 34.4986
rfemur -47.1164 -5.80312 29.9148
rtibia 55.5353
rfoot 3.64316 -8.95137
rtoes 33.6529
lfemur -19.457 10.3487 -27.0556
ltibia 35.9286
lfoot -21.7308 -31.0536
ltoes 34.6712
1115
root -10.9978 16.9192 12.4155 -164.216 -233.714 -172.402
lowerback 0.462581 -2.06655 -8.6582
upperback -0.352413 -2.80103 -0.981461
thorax -0.259781 -1.3685 3.83956
lowerneck -2.66009 -11.4888 -8.79931
upperneck 7.57538 -15.8028 10.239
head 4.21408 -7.69027 3.62224
rclavicle 7.53394e-014 1.39149e-014
rhumerus -50.5474 1.32491 -74.8975
rradius 36.9417
rwrist 14.3658
rhand -25.5935 -17.5191
rfingers 7.12502
rthumb 0.938394 -47.4967
lclavicle 7.53394e-014 1.39149e-014
lhumerus -0.6874 8.69277 13.4091
lradius 66.4198
lwrist 44.737
lhand -25.0752 4.64183
lfingers 7.12502
lthumb 1.43892 34.6167
rfemur -47.6567 -5.90997 29.8042
rtibia 55.9593
rfoot 4.46145 -8.19631
rtoes 32.4196
lfemur -19.5802 10.3493 -27.1191
ltibia 35.8258
lfoot -22.0134 -30.8188
ltoes 34.3094
1116
root -11.0067 16.9173 12.4218 -164.19 -233.571 -172.499
lowerback 0.578772 -1.97383 -8.71477
upperback -0.244254 -2.68401 -0.98065
thorax -0.225376 -1.31455 3.87472
lowerneck -2.62705 -11.4414 -8.85202
upperneck 7.17723 -15.7296 10.4696
head 4.10405 -7.65602 3.71611
rclavicle 3.07619e-014 1.86858e-014
rhumerus -49.8709 1.82429 -75.731
rradius 37.0413
rwrist 14.1829
rhand -25.9382 -17.5143
rfingers 7.12502
rthumb 0.605421 -47.4931
lclavicle 3.07619e-014 1.86858e-014
lhumerus -1.78442 7.0163 14.0313
lradius 67.3046
lwrist 44.4918
lhand -24.3502 4.78448
lfingers 7.12502
lthumb 2.13918 34.7535
rfemur -48.2271 -6.00974 29.7614
rtibia 56.4959
rfoot 5.43873 -7.39379
rtoes 30.9465
lfemur -19.6277 10.3736 -27.0874
ltibia 35.7218
lfoot -22.2681 -30.603
ltoes 34.2011
1117
root -11.0151 16.9135 12.4289 -164.01 -233.358 -172.38
lowerback 0.694904 -1.89009 -8.90624
upperback -0.12095 -2.57824 -1.03451
thorax -0.170537 -1.26681 3.92749
lowerneck -2.71301 -11.3987 -8.82173
upperneck 6.89737 -15.6583 10.6
head 4.03493 -7.61842 3.7582
rclavicle -1.2593e-013 -8.34896e-015
rhumerus -49.1235 2.26115 -76.5385
rradius 37.1099
rwrist 14.3061
rhand -26.1923 -17.552
rfingers 7.12502
rthumb 0.360057 -47.5314
lclavicle -1.2593e-013 -8.34896e-015
lhumerus -2.99411 5.29333 14.7048
lradius 68.2569
lwrist 44.3338
lhand -23.4598 4.91464
lfingers 7.12502
lthumb 2.99903 34.8733
rfemur -48.9079 -6.20731 29.5891
rtibia 57.1371
rfoot 6.60295 -6.3327
rtoes 29.4814
lfemur -19.6293 10.4795 -27.2021
ltibia 35.5817
lfoot -22.5596 -30.4368
ltoes 34.1305
1118
root -11.0198 16.9154 12.4318 -163.988 -233.234 -172.447
lowerback 0.846385 -1.87897 -8.94275
upperback -0.013511 -2.57396 -0.996565
thorax -0.141208 -1.26926 3.99042
lowerneck -3.07981 -11.3525 -8.80496
upperneck 6.88873 -15.567 10.5356
head 4.07719 -7.56411 3.72279
rclavicle -1.37161e-014 2.5842e-014
rhumerus -48.3144 2.84882 -77.3249
rradius 37.2078
rwrist 14.3339
rhand -26.6329 -17.9521
rfingers 7.12502
rthumb -0.0655176 -47.9318
lclavicle -1.37161e-014 2.5842e-014
lhumerus -4.46991 3.52022 15.5384
lradius 69.2785
lwrist 44.2493
lhand -22.8688 5.15606
lfingers 7.12502
lthumb 3.56976 35.1059
rfemur -49.6068 -6.38429 29.4888
rtibia 57.8112
rfoot 7.78621 -5.39549
rtoes 28.4974
lfemur -19.6137 10.454 -27.1942
ltibia 35.4412
lfoot -22.8747 -30.1865
ltoes 33.8417
